<svg xmlns="http://www.w3.org/2000/svg" width="200mm" height="200mm" viewBox="0 0 200 200"><path d="M111.251 29.475 90.244 71.667v39.404L77.19 98.016l-.06-.06-30.146 60.708 41.659 41.658.027-.027.032.086 18.93-18.93-.085-.032.027-.027-13.53-13.53c-4.414-4.414-4.966-11.281-1.656-16.348a13 13 0 0 1 1.655-2.049l17.21-17.209 5.934-5.934 28.187-28.188zm36.556 73.584-25.518 25.518-7.358 7.358-.06.06 13.53 13.53c5.045 5.044 5.045 13.292 0 18.337l-36.14 36.14 18.931 18.93.03-.03.03.03 18.277-18.278 18.278-18.277-.019-.007.01-.01.01.017 27.712-27.713z" class="st0" style="fill:#00bcff;stroke-width:.593426" transform="translate(-11.252 -26.203)"/></svg>